<svg width="3806" height="1888" xmlns="http://www.w3.org/2000/svg" xmlns:xlink="http://www.w3.org/1999/xlink" xml:space="preserve" overflow="hidden"><g transform="translate(-163 -250)"><path d="M170 1194C170 1069.74 270.96 969 395.5 969 520.04 969 621 1069.74 621 1194 621 1318.26 520.04 1419 395.5 1419 270.96 1419 170 1318.26 170 1194Z" stroke="#4472C4" stroke-width="13.75" stroke-miterlimit="8" fill="none" fill-rule="evenodd"/><path d="M1006 1194C1006 1069.74 1106.96 969 1231.5 969 1356.04 969 1457 1069.74 1457 1194 1457 1318.26 1356.04 1419 1231.5 1419 1106.96 1419 1006 1318.26 1006 1194Z" stroke="#4472C4" stroke-width="13.75" stroke-miterlimit="8" fill="none" fill-rule="evenodd"/><path d="M1795 482.5C1795 357.96 1895.96 257 2020.5 257 2145.04 257 2246 357.96 2246 482.5 2246 607.04 2145.04 708 2020.5 708 1895.96 708 1795 607.04 1795 482.5Z" stroke="#4472C4" stroke-width="13.75" stroke-miterlimit="8" fill="none" fill-rule="evenodd"/><path d="M2103 1194C2103 1069.74 2203.96 969 2328.5 969 2453.04 969 2554 1069.74 2554 1194 2554 1318.26 2453.04 1419 2328.5 1419 2203.96 1419 2103 1318.26 2103 1194Z" stroke="#4472C4" stroke-width="13.75" stroke-miterlimit="8" fill="none" fill-rule="evenodd"/><path d="M1795 1905.5C1795 1780.96 1895.96 1680 2020.5 1680 2145.04 1680 2246 1780.96 2246 1905.5 2246 2030.04 2145.04 2131 2020.5 2131 1895.96 2131 1795 2030.04 1795 1905.5Z" stroke="#4472C4" stroke-width="13.75" stroke-miterlimit="8" fill="none" fill-rule="evenodd"/><path d="M2701 482.5C2701 357.96 2801.74 257 2926 257 3050.26 257 3151 357.96 3151 482.5 3151 607.04 3050.26 708 2926 708 2801.74 708 2701 607.04 2701 482.5Z" stroke="#4472C4" stroke-width="13.75" stroke-miterlimit="8" fill="none" fill-rule="evenodd"/><path d="M3512 482.5C3512 357.96 3612.74 257 3737 257 3861.26 257 3962 357.96 3962 482.5 3962 607.04 3861.26 708 3737 708 3612.74 708 3512 607.04 3512 482.5Z" stroke="#4472C4" stroke-width="13.75" stroke-miterlimit="8" fill="none" fill-rule="evenodd"/><path d="M9.66675e-06-10.3125 333.438-10.3122 333.438 10.3128-9.66675e-06 10.3125ZM323.125-30.9372 385 0.000360892 323.125 30.9378Z" fill="#4472C4" transform="matrix(1 0 0 -1 621.5 1194.5)"/><path d="M1.7265e-05-10.3125 595.13-10.3115 595.13 10.3135-1.7265e-05 10.3125ZM584.817-30.9365 646.692 0.00108268 584.817 30.9385Z" fill="#4472C4" transform="matrix(1 0 0 -1 1457.5 1194.5)"/><path d="M8.31624-6.09818 382.691 504.446 366.059 516.643-8.31624 6.09818ZM393.225 483.933 404.865 552.125 343.328 520.522Z" fill="#4472C4" transform="matrix(1 0 0 -1 1457.5 1194.62)"/><path d="M1465.82 1188.4 1840.19 1698.94 1823.56 1711.14 1449.18 1200.6ZM1850.72 1678.43 1862.37 1746.62 1800.83 1715.02Z" fill="#4472C4"/><path d="M2246.5 473.188 2649.48 473.188 2649.48 493.813 2246.5 493.813ZM2639.17 452.563 2701.04 483.501 2639.17 514.438Z" fill="#4472C4"/><path d="M38.2486 36.0844 257.283 344.777 240.462 356.712 21.4278 48.0197ZM10.5746 68.3654 0 0 61.0371 32.5595ZM268.136 324.431 278.71 392.796 217.673 360.237Z" fill="#4472C4" transform="matrix(-1 0 0 1 2767.21 642.5)"/><text font-family="Calibri,Calibri_MSFontService,sans-serif" font-weight="700" font-size="83" transform="matrix(1 0 0 1 291.408 1221)">START</text><text font-family="Calibri,Calibri_MSFontService,sans-serif" font-weight="400" font-size="83" transform="matrix(1 0 0 1 1162.1 1171)">LLM</text><text font-family="Calibri,Calibri_MSFontService,sans-serif" font-weight="400" font-size="83" transform="matrix(1 0 0 1 1094.31 1270)">ROUTER</text><text font-family="Calibri,Calibri_MSFontService,sans-serif" font-weight="400" font-size="83" transform="matrix(1 0 0 1 1908.36 459)">CODER</text><text font-family="Calibri,Calibri_MSFontService,sans-serif" font-weight="400" font-size="83" transform="matrix(1 0 0 1 1908.86 558)">AGENT</text><text font-family="Calibri,Calibri_MSFontService,sans-serif" font-weight="400" font-size="83" transform="matrix(1 0 0 1 2141.23 1171)">DEBUGGER</text><text font-family="Calibri,Calibri_MSFontService,sans-serif" font-weight="400" font-size="83" transform="matrix(1 0 0 1 2213.72 1270)">AGENT</text><text font-family="Calibri,Calibri_MSFontService,sans-serif" font-weight="400" font-size="83" transform="matrix(1 0 0 1 2748.03 459)">EXECUTOR</text><text font-family="Calibri,Calibri_MSFontService,sans-serif" font-weight="400" font-size="83" transform="matrix(1 0 0 1 2809.7 558)">AGENT</text><text font-family="Calibri,Calibri_MSFontService,sans-serif" font-weight="400" font-size="83" transform="matrix(1 0 0 1 1934.28 1882)">MISC</text><text font-family="Calibri,Calibri_MSFontService,sans-serif" font-weight="400" font-size="83" transform="matrix(1 0 0 1 1904.52 1981)">AGENT</text><text font-family="Calibri,Calibri_MSFontService,sans-serif" font-weight="700" font-size="83" transform="matrix(1 0 0 1 3663.82 1221)">END</text><path d="M3512 1194C3512 1069.74 3612.74 969 3737 969 3861.26 969 3962 1069.74 3962 1194 3962 1318.26 3861.26 1419 3737 1419 3612.74 1419 3512 1318.26 3512 1194Z" stroke="#4472C4" stroke-width="13.75" stroke-miterlimit="8" fill="none" fill-rule="evenodd"/><text font-family="Calibri,Calibri_MSFontService,sans-serif" font-weight="400" font-size="83" transform="matrix(1 0 0 1 3555.86 470)">SUMMARY</text><text font-family="Calibri,Calibri_MSFontService,sans-serif" font-weight="400" font-size="83" transform="matrix(1 0 0 1 3637.76 569)">NODE</text><path d="M3151.5 473.188 3460.45 473.188 3460.45 493.813 3151.5 493.813ZM3450.14 452.563 3512.01 483.501 3450.14 514.438Z" fill="#4472C4"/><path d="M3747.81 708.5 3747.81 917.743 3727.19 917.743 3727.19 708.5ZM3768.44 907.431 3737.5 969.306 3706.56 907.431Z" fill="#4472C4"/><text font-family="Calibri,Calibri_MSFontService,sans-serif" font-weight="700" font-size="83" transform="matrix(1 0 0 1 2840.36 1932)">END</text><path d="M2688 1905.5C2688 1780.96 2788.96 1680 2913.5 1680 3038.04 1680 3139 1780.96 3139 1905.5 3139 2030.04 3038.04 2131 2913.5 2131 2788.96 2131 2688 2030.04 2688 1905.5Z" stroke="#4472C4" stroke-width="13.75" stroke-miterlimit="8" fill="none" fill-rule="evenodd"/><path d="M2246.5 1895.19 2637.18 1895.19 2637.18 1915.81 2246.5 1915.81ZM2626.86 1874.56 2688.74 1905.5 2626.86 1936.44Z" fill="#4472C4"/></g></svg>