<svg width="3091" height="1256" xmlns="http://www.w3.org/2000/svg" xmlns:xlink="http://www.w3.org/1999/xlink" xml:space="preserve" overflow="hidden"><g transform="translate(-269 -237)"><path d="M1086.5 1238C1086.5 1099.65 1198.65 987.5 1337 987.5 1475.35 987.5 1587.5 1099.65 1587.5 1238 1587.5 1376.35 1475.35 1488.5 1337 1488.5 1198.65 1488.5 1086.5 1376.35 1086.5 1238Z" stroke="#4472C4" stroke-width="9.16667" stroke-miterlimit="8" fill="#FFFFFF" fill-rule="evenodd"/><text font-family="Calibri,Calibri_MSFontService,sans-serif" font-weight="400" font-size="92" transform="matrix(1 0 0 1 1225.01 1212)">Coder</text><text font-family="Calibri,Calibri_MSFontService,sans-serif" font-weight="400" font-size="92" transform="matrix(1 0 0 1 1226.66 1322)">Agent</text><path d="M2053.5 1238C2053.5 1099.65 2165.65 987.5 2304 987.5 2442.35 987.5 2554.5 1099.65 2554.5 1238 2554.5 1376.35 2442.35 1488.5 2304 1488.5 2165.65 1488.5 2053.5 1376.35 2053.5 1238Z" stroke="#4472C4" stroke-width="9.16667" stroke-miterlimit="8" fill="#FFFFFF" fill-rule="evenodd"/><text font-family="Calibri,Calibri_MSFontService,sans-serif" font-weight="400" font-size="92" transform="matrix(1 0 0 1 2140.89 1212)">Executor</text><text font-family="Calibri,Calibri_MSFontService,sans-serif" font-weight="400" font-size="92" transform="matrix(1 0 0 1 2193.6 1322)">Agent</text><path d="M2756.5 492C2756.5 353.653 2868.65 241.5 3007 241.5 3145.35 241.5 3257.5 353.653 3257.5 492 3257.5 630.347 3145.35 742.5 3007 742.5 2868.65 742.5 2756.5 630.347 2756.5 492Z" stroke="#4472C4" stroke-width="9.16667" stroke-miterlimit="8" fill="#FFFFFF" fill-rule="evenodd"/><text font-family="Calibri,Calibri_MSFontService,sans-serif" font-weight="400" font-size="92" transform="matrix(1 0 0 1 2834.22 467)">Debugger</text><text font-family="Calibri,Calibri_MSFontService,sans-serif" font-weight="400" font-size="92" transform="matrix(1 0 0 1 2905.54 577)">Agent</text><path d="M275.5 1238C275.5 1152.12 344.896 1082.5 430.5 1082.5 516.104 1082.5 585.5 1152.12 585.5 1238 585.5 1323.88 516.104 1393.5 430.5 1393.5 344.896 1393.5 275.5 1323.88 275.5 1238Z" stroke="#4472C4" stroke-width="9.16667" stroke-miterlimit="8" fill="#FFFFFF" fill-rule="evenodd"/><text font-family="Calibri,Calibri_MSFontService,sans-serif" font-weight="400" font-size="92" transform="matrix(1 0 0 1 324.479 1268)">START</text><path d="M3044.5 1238C3044.5 1152.12 3114.12 1082.5 3200 1082.5 3285.88 1082.5 3355.5 1152.12 3355.5 1238 3355.5 1323.88 3285.88 1393.5 3200 1393.5 3114.12 1393.5 3044.5 1323.88 3044.5 1238Z" stroke="#4472C4" stroke-width="9.16667" stroke-miterlimit="8" fill="#FFFFFF" fill-rule="evenodd"/><text font-family="Calibri,Calibri_MSFontService,sans-serif" font-weight="400" font-size="92" transform="matrix(1 0 0 1 3119.74 1268)">END</text><path d="M585 1231.12 1051.51 1231.13 1051.51 1244.88 585 1244.87ZM1044.63 1217.38 1085.88 1238 1044.63 1258.63Z" fill="#4472C4"/><path d="M1587 1231.12 2018.67 1231.13 2018.67 1244.88 1587 1244.87ZM2011.79 1217.38 2053.04 1238 2011.79 1258.63Z" fill="#4472C4"/><path d="M28.0145 21.073 331.58 361.322 321.32 370.476 17.7545 30.2269ZM12.0715 44.511 0 0 42.8517 17.0494ZM337.263 347.037 349.334 391.548 306.482 374.499Z" fill="#4472C4" transform="matrix(1 0 0 -1 2480 1060.55)"/><path d="M2554 1231.12 3010.24 1231.13 3010.24 1244.88 2554 1244.87ZM3003.37 1217.38 3044.62 1238 3003.37 1258.63Z" fill="#4472C4"/></g></svg>