<svg width="3818" height="1888" xmlns="http://www.w3.org/2000/svg" xmlns:xlink="http://www.w3.org/1999/xlink" xml:space="preserve" overflow="hidden"><g transform="translate(-163 -250)"><path d="M170 1194C170 1069.74 270.96 969 395.5 969 520.04 969 621 1069.74 621 1194 621 1318.26 520.04 1419 395.5 1419 270.96 1419 170 1318.26 170 1194Z" stroke="#4472C4" stroke-width="13.75" stroke-miterlimit="8" fill="none" fill-rule="evenodd"/><path d="M1006 1194C1006 1069.74 1106.96 969 1231.5 969 1356.04 969 1457 1069.74 1457 1194 1457 1318.26 1356.04 1419 1231.5 1419 1106.96 1419 1006 1318.26 1006 1194Z" stroke="#4472C4" stroke-width="13.75" stroke-miterlimit="8" fill="none" fill-rule="evenodd"/><path d="M1795 482.5C1795 357.96 1895.96 257 2020.5 257 2145.04 257 2246 357.96 2246 482.5 2246 607.04 2145.04 708 2020.5 708 1895.96 708 1795 607.04 1795 482.5Z" stroke="#4472C4" stroke-width="13.75" stroke-miterlimit="8" fill="none" fill-rule="evenodd"/><path d="M2103 1194C2103 1069.74 2203.96 969 2328.5 969 2453.04 969 2554 1069.74 2554 1194 2554 1318.26 2453.04 1419 2328.5 1419 2203.96 1419 2103 1318.26 2103 1194Z" stroke="#4472C4" stroke-width="13.75" stroke-miterlimit="8" fill="none" fill-rule="evenodd"/><path d="M1795 1905.5C1795 1780.96 1895.96 1680 2020.5 1680 2145.04 1680 2246 1780.96 2246 1905.5 2246 2030.04 2145.04 2131 2020.5 2131 1895.96 2131 1795 2030.04 1795 1905.5Z" stroke="#4472C4" stroke-width="13.75" stroke-miterlimit="8" fill="none" fill-rule="evenodd"/><path d="M2701 482.5C2701 357.96 2801.74 257 2926 257 3050.26 257 3151 357.96 3151 482.5 3151 607.04 3050.26 708 2926 708 2801.74 708 2701 607.04 2701 482.5Z" stroke="#4472C4" stroke-width="13.75" stroke-miterlimit="8" fill="none" fill-rule="evenodd"/><path d="M3524 482.5C3524 357.96 3624.74 257 3749 257 3873.26 257 3974 357.96 3974 482.5 3974 607.04 3873.26 708 3749 708 3624.74 708 3524 607.04 3524 482.5Z" stroke="#4472C4" stroke-width="13.75" stroke-miterlimit="8" fill="none" fill-rule="evenodd"/><path d="M2817 1905.5C2817 1780.96 2917.74 1680 3042 1680 3166.26 1680 3267 1780.96 3267 1905.5 3267 2030.04 3166.26 2131 3042 2131 2917.74 2131 2817 2030.04 2817 1905.5Z" stroke="#4472C4" stroke-width="13.75" stroke-miterlimit="8" fill="none" fill-rule="evenodd"/><path d="M1.07408e-05-11.4583 327.709-11.458 327.709 11.4586-1.07408e-05 11.4583ZM316.25-34.3747 385 0.000360892 316.25 34.3753Z" fill="#4472C4" transform="matrix(1 0 0 -1 621.5 1194.5)"/><path d="M1.91833e-05-11.4583 589.401-11.4573 589.401 11.4593-1.91833e-05 11.4583ZM577.942-34.374 646.692 0.00108268 577.942 34.376Z" fill="#4472C4" transform="matrix(1 0 0 -1 1457.5 1194.5)"/><path d="M9.24027-6.77576 380.227 499.148 361.747 512.7-9.24027 6.77576ZM391.932 476.356 404.865 552.125 336.49 517.011Z" fill="#4472C4" transform="matrix(1 0 0 -1 1457.5 1194.62)"/><path d="M1466.74 1187.72 1837.73 1693.65 1819.25 1707.2 1448.26 1201.28ZM1849.43 1670.85 1862.37 1746.62 1793.99 1711.51Z" fill="#4472C4"/><path d="M7.24966e-06-11.4583 513.111-11.458 513.111 11.4587-7.24966e-06 11.4583ZM501.653-34.3747 570.403 0.000360892 501.653 34.3753Z" fill="#4472C4" transform="matrix(1 0 0 -1 2246.5 1905.5)"/><path d="M2246.5 472.042 2643.75 472.042 2643.75 494.959 2246.5 494.958ZM2632.29 449.125 2701.04 483.501 2632.29 517.875Z" fill="#4472C4"/><path d="M42.4985 40.0938 254.902 339.441 236.212 352.702 23.8087 53.3552ZM11.7496 75.9615 0 0 67.819 36.1773ZM266.961 316.835 278.71 392.796 210.891 356.619Z" fill="#4472C4" transform="matrix(-1 0 0 1 2767.21 642.5)"/><path d="M3151.5 472.042 3466.44 472.042 3466.44 494.959 3151.5 494.958ZM3454.98 449.125 3523.73 483.501 3454.98 517.875Z" fill="#4472C4"/><text font-family="Calibri,Calibri_MSFontService,sans-serif" font-weight="400" font-size="83" transform="matrix(1 0 0 1 294.422 1221)">START</text><text font-family="Calibri,Calibri_MSFontService,sans-serif" font-weight="400" font-size="83" transform="matrix(1 0 0 1 1162.1 1171)">LLM</text><text font-family="Calibri,Calibri_MSFontService,sans-serif" font-weight="400" font-size="83" transform="matrix(1 0 0 1 1094.31 1270)">ROUTER</text><text font-family="Calibri,Calibri_MSFontService,sans-serif" font-weight="400" font-size="83" transform="matrix(1 0 0 1 1908.36 459)">CODER</text><text font-family="Calibri,Calibri_MSFontService,sans-serif" font-weight="400" font-size="83" transform="matrix(1 0 0 1 1908.86 558)">AGENT</text><text font-family="Calibri,Calibri_MSFontService,sans-serif" font-weight="400" font-size="83" transform="matrix(1 0 0 1 2141.23 1171)">DEBUGGER</text><text font-family="Calibri,Calibri_MSFontService,sans-serif" font-weight="400" font-size="83" transform="matrix(1 0 0 1 2213.72 1270)">AGENT</text><text font-family="Calibri,Calibri_MSFontService,sans-serif" font-weight="400" font-size="83" transform="matrix(1 0 0 1 2748.03 459)">EXECUTOR</text><text font-family="Calibri,Calibri_MSFontService,sans-serif" font-weight="400" font-size="83" transform="matrix(1 0 0 1 2809.7 558)">AGENT</text><text font-family="Calibri,Calibri_MSFontService,sans-serif" font-weight="400" font-size="83" transform="matrix(1 0 0 1 1934.28 1882)">MISC</text><text font-family="Calibri,Calibri_MSFontService,sans-serif" font-weight="400" font-size="83" transform="matrix(1 0 0 1 1904.52 1981)">AGENT</text><text font-family="Calibri,Calibri_MSFontService,sans-serif" font-weight="400" font-size="83" transform="matrix(1 0 0 1 3676.68 509)">END</text><text font-family="Calibri,Calibri_MSFontService,sans-serif" font-weight="400" font-size="83" transform="matrix(1 0 0 1 2969.67 1932)">END</text></g></svg>